<svg width="148" height="388" viewBox="0 0 148 388" fill="none" xmlns="http://www.w3.org/2000/svg">
<g clip-path="url(#clip0)">
<rect width="1400" height="23925" transform="translate(-700 -176)" fill="white"/>
<g clip-path="url(#clip1)">
<path d="M147.083 0.181396L-148.076 265.321V272.111L-146.186 280.928L147.083 16.1515V0.181396Z" fill="#202020"/>
<path d="M147.628 274.032V264.413L5.71177 136.653L-4.26953 145.727L144.361 279.476V280.746L147.628 274.032Z" fill="#202020"/>
<path d="M147.084 199.807L41.4635 104.168L31.3008 113.061L147.084 217.773V199.807Z" fill="#202020"/>
<path d="M146.902 134.294L75.7624 70.0505L65.5996 79.1244L146.902 152.442V134.294Z" fill="#202020"/>
<path d="M146.538 72.9543L108.065 38.8364L97.9023 47.9103L146.357 90.9206L146.538 72.9543Z" fill="#202020"/>
<path d="M0.267563 388C77.0328 388 140.187 340.271 147.083 279.113V272.217L135.106 266.954V272.217C132.928 329.564 73.2217 375.66 0.267563 375.66C-72.6866 375.66 -132.393 329.383 -134.752 272.217V264.958L-148 272.217C-145.096 336.279 -79.7643 388 0.267563 388Z" fill="#202020"/>
<path d="M-148 226.122L102.258 0H84.2919L-147.819 208.881L-148 226.122Z" fill="#202020"/>
<path d="M-148 173.13L43.6408 0H25.6745L-147.819 156.071L-148 173.13Z" fill="#202020"/>
</g>
</g>
<defs>
<clipPath id="clip0">
<rect width="1400" height="23925" fill="white" transform="translate(-700 -176)"/>
</clipPath>
<clipPath id="clip1">
<rect width="295.628" height="388" fill="white" transform="translate(-148)"/>
</clipPath>
</defs>
</svg>
