<svg width="352" height="64" viewBox="0 0 352 64" fill="none" xmlns="http://www.w3.org/2000/svg">
<path d="M15.5909 47.4839L9.47514 62.4516H0L26.4443 1.54839H34.1967L60.3825 62.4516H50.7351L44.5332 47.4839H15.5909ZM30.062 11.4409L18.6057 40H41.4322L30.062 11.4409Z" fill="white"/>
<path d="M122.396 1.54839L154.267 50.2366H154.439V1.54839H162.967V62.4516H152.2L119.984 12.7312H119.812V62.4516H111.284V1.54839H122.396Z" fill="white"/>
<path d="M229.419 1.54839V28.3871H229.591L256.811 1.54839H268.612L238.98 29.4194L270.42 62.4516H258.189L229.591 30.9677H229.419V62.4516H220.891V1.54839H229.419Z" fill="white"/>
<path d="M476.287 6.96774L470.257 12.8172C468.994 11.0968 467.3 9.72043 465.175 8.68817C463.108 7.65591 460.839 7.13978 458.37 7.13978C455.269 7.13978 452.513 8 450.101 9.72043C447.689 11.3835 446.483 13.8208 446.483 17.0323C446.483 18.638 446.77 20.0143 447.345 21.1613C447.919 22.2509 448.895 23.2258 450.273 24.086C451.651 24.8889 452.886 25.5197 453.977 25.9785C455.068 26.3799 456.733 26.9534 458.973 27.6989C461.213 28.3871 462.907 28.9606 464.055 29.4194C465.261 29.8208 466.812 30.5376 468.707 31.5699C470.602 32.6021 472.037 33.6918 473.014 34.8387C474.047 35.9283 474.937 37.3907 475.684 39.2258C476.488 41.0609 476.89 43.1541 476.89 45.5054C476.89 51.4695 474.822 56.0573 470.688 59.2688C466.611 62.4229 461.643 64 455.786 64C451.824 64 448.034 63.2545 444.416 61.7634C440.855 60.2151 437.955 58.0072 435.716 55.1398L442.349 49.5484C443.784 51.6702 445.708 53.3907 448.12 54.7097C450.589 56.0287 453.202 56.6882 455.958 56.6882C459.174 56.6882 462.017 55.7993 464.486 54.0215C466.955 52.1864 468.19 49.6057 468.19 46.2796C468.19 44.8459 467.903 43.5556 467.328 42.4086C466.754 41.2616 466.123 40.3441 465.433 39.6559C464.744 38.9677 463.625 38.2796 462.074 37.5914C460.524 36.8459 459.26 36.3011 458.284 35.957C457.365 35.6129 455.843 35.1254 453.719 34.4946C451.422 33.7491 449.469 33.0323 447.861 32.3441C446.311 31.5986 444.674 30.595 442.951 29.3333C441.286 28.0143 440.023 26.3513 439.161 24.3441C438.3 22.3369 437.869 20.0143 437.869 17.3763C437.869 13.534 438.932 10.2652 441.056 7.56989C443.181 4.8172 445.765 2.86738 448.809 1.72043C451.91 0.573476 455.24 0 458.801 0C462.304 0 465.606 0.630823 468.707 1.89247C471.865 3.15412 474.392 4.84588 476.287 6.96774Z" fill="white"/>
<path d="M532.047 62.4516V1.54839H540.574V27.0107H571.412V1.54839H580.025V62.4516H571.412V34.5806H540.574V62.4516H532.047Z" fill="white"/>
<path d="M699.37 31.914C699.37 41.2616 696.298 48.9462 690.154 54.9677C684.067 60.9892 676.343 64 666.983 64C657.68 64 649.985 60.9892 643.898 54.9677C637.811 48.9462 634.767 41.2616 634.767 31.914C634.767 22.509 637.782 14.853 643.812 8.94623C649.899 2.98208 657.622 0 666.983 0C676.343 0 684.067 2.98208 690.154 8.94623C696.298 14.853 699.37 22.509 699.37 31.914ZM690.154 31.914C690.154 25.0323 688.029 19.2401 683.78 14.5376C679.53 9.83512 673.931 7.48387 666.983 7.48387C660.149 7.48387 654.608 9.83512 650.358 14.5376C646.109 19.2401 643.984 25.0323 643.984 31.914C643.984 38.853 646.109 44.6738 650.358 49.3763C654.608 54.0215 660.149 56.3441 666.983 56.3441C673.931 56.3441 679.53 54.0215 683.78 49.3763C688.029 44.6738 690.154 38.853 690.154 31.914Z" fill="white"/>
<path d="M754.036 62.4516V1.54839H772.642C779.476 1.54839 784.816 2.9534 788.664 5.76344C792.511 8.51613 794.435 12.7599 794.435 18.4946C794.435 24.3441 792.396 28.6738 788.319 31.4839C784.299 34.2939 778.93 35.6989 772.211 35.6989H762.564V62.4516H754.036ZM762.564 8.77419V28.4731H771.608C781.083 28.4731 785.821 25.147 785.821 18.4946C785.821 12.0143 781.141 8.77419 771.781 8.77419H762.564Z" fill="white"/>
<path d="M352.812 12.2724C364.705 12.2724 374.347 21.9007 374.347 33.7778C374.347 45.6549 364.705 55.2831 352.812 55.2831C340.919 55.2831 331.278 45.6549 331.278 33.7778C331.278 21.9007 340.919 12.2724 352.812 12.2724Z" fill="white"/>
</svg>
