<svg width="148" height="388" viewBox="0 0 148 388" fill="none" xmlns="http://www.w3.org/2000/svg">
<g clip-path="url(#clip0)">
<path d="M295.083 0.181396L-0.0761719 265.321V272.111L1.81435 280.928L295.083 16.1515V0.181396Z" fill="white"/>
<path d="M295.628 274.032V264.413L153.712 136.653L143.73 145.727L292.361 279.476V280.746L295.628 274.032Z" fill="white"/>
<path d="M148.268 388C225.033 388 288.187 340.271 295.083 279.113V272.217L283.106 266.954V272.217C280.928 329.564 221.222 375.66 148.268 375.66C75.3134 375.66 15.6071 329.383 13.2479 272.217V264.958L0 272.217C2.90365 336.279 68.2357 388 148.268 388Z" fill="white"/>
<path d="M0 226.122L250.258 0H232.292L0.181478 208.881L0 226.122Z" fill="white"/>
<path d="M0 173.13L191.641 0H173.674L0.181478 156.071L0 173.13Z" fill="white"/>
<path d="M0 120.32L133.205 0H114.876L0.181478 103.261L0 120.32Z" fill="white"/>
<path d="M0 67.5098L74.769 0H56.2582L0.181478 50.4509L0 67.5098Z" fill="white"/>
</g>
<defs>
<clipPath id="clip0">
<rect width="295.628" height="388" fill="none"/>
</clipPath>
</defs>
</svg>
