<svg width="444" height="64" viewBox="0 0 444 64" fill="none" xmlns="http://www.w3.org/2000/svg">
<g clip-path="url(#clip0)">
<rect width="1400" height="23925" transform="translate(-700 -660)" fill="white"/>
<path d="M-336.409 47.4839L-342.525 62.4516H-352L-325.556 1.54839H-317.803L-291.617 62.4516H-301.265L-307.467 47.4839H-336.409ZM-321.938 11.4409L-333.394 40H-310.568L-321.938 11.4409Z" fill="#202020"/>
<path d="M-229.604 1.54839L-197.733 50.2366H-197.561V1.54839H-189.033V62.4516H-199.8L-232.016 12.7312H-232.188V62.4516H-240.716V1.54839H-229.604Z" fill="#202020"/>
<path d="M-122.581 1.54839V28.3871H-122.409L-95.1893 1.54839H-83.3885L-113.02 29.4194L-81.5796 62.4516H-93.8111L-122.409 30.9677H-122.581V62.4516H-131.109V1.54839H-122.581Z" fill="#202020"/>
<path d="M124.287 6.96774L118.257 12.8172C116.994 11.0968 115.3 9.72043 113.175 8.68817C111.108 7.65591 108.839 7.13978 106.37 7.13978C103.269 7.13978 100.513 8 98.1009 9.72043C95.6891 11.3835 94.4831 13.8208 94.4831 17.0323C94.4831 18.638 94.7703 20.0143 95.3445 21.1613C95.9188 22.2509 96.895 23.2258 98.2732 24.086C99.6514 24.8889 100.886 25.5197 101.977 25.9785C103.068 26.3799 104.733 26.9534 106.973 27.6989C109.213 28.3871 110.907 28.9606 112.055 29.4194C113.261 29.8208 114.812 30.5376 116.707 31.5699C118.602 32.6021 120.037 33.6918 121.014 34.8387C122.047 35.9283 122.937 37.3907 123.684 39.2258C124.488 41.0609 124.89 43.1541 124.89 45.5054C124.89 51.4695 122.822 56.0573 118.688 59.2688C114.611 62.4229 109.643 64 103.786 64C99.8236 64 96.0336 63.2545 92.4158 61.7634C88.8555 60.2151 85.9555 58.0072 83.7159 55.1398L90.3485 49.5484C91.7841 51.6702 93.7079 53.3907 96.1197 54.7097C98.589 56.0287 101.202 56.6882 103.958 56.6882C107.174 56.6882 110.017 55.7993 112.486 54.0215C114.955 52.1864 116.19 49.6057 116.19 46.2796C116.19 44.8459 115.903 43.5556 115.328 42.4086C114.754 41.2616 114.123 40.3441 113.433 39.6559C112.744 38.9677 111.625 38.2796 110.074 37.5914C108.524 36.8459 107.26 36.3011 106.284 35.957C105.365 35.6129 103.843 35.1254 101.719 34.4946C99.4217 33.7491 97.4692 33.0323 95.8613 32.3441C94.3109 31.5986 92.6742 30.595 90.9514 29.3333C89.2861 28.0143 88.0228 26.3513 87.1614 24.3441C86.3 22.3369 85.8694 20.0143 85.8694 17.3763C85.8694 13.534 86.9317 10.2652 89.0564 7.56989C91.1812 4.8172 93.7653 2.86738 96.8088 1.72043C99.9098 0.573476 103.24 0 106.801 0C110.304 0 113.606 0.630823 116.707 1.89247C119.865 3.15412 122.392 4.84588 124.287 6.96774Z" fill="#202020"/>
<path d="M180.047 62.4516V1.54839H188.574V27.0107H219.412V1.54839H228.025V62.4516H219.412V34.5806H188.574V62.4516H180.047Z" fill="#202020"/>
<path d="M347.37 31.914C347.37 41.2616 344.298 48.9462 338.154 54.9677C332.067 60.9892 324.343 64 314.983 64C305.68 64 297.985 60.9892 291.898 54.9677C285.811 48.9462 282.767 41.2616 282.767 31.914C282.767 22.509 285.782 14.853 291.812 8.94623C297.899 2.98208 305.622 0 314.983 0C324.343 0 332.067 2.98208 338.154 8.94623C344.298 14.853 347.37 22.509 347.37 31.914ZM338.154 31.914C338.154 25.0323 336.029 19.2401 331.78 14.5376C327.53 9.83512 321.931 7.48387 314.983 7.48387C308.149 7.48387 302.608 9.83512 298.358 14.5376C294.109 19.2401 291.984 25.0323 291.984 31.914C291.984 38.853 294.109 44.6738 298.358 49.3763C302.608 54.0215 308.149 56.3441 314.983 56.3441C321.931 56.3441 327.53 54.0215 331.78 49.3763C336.029 44.6738 338.154 38.853 338.154 31.914Z" fill="#202020"/>
<path d="M402.036 62.4516V1.54839H420.642C427.476 1.54839 432.816 2.9534 436.664 5.76344C440.511 8.51613 442.435 12.7599 442.435 18.4946C442.435 24.3441 440.396 28.6738 436.319 31.4839C432.299 34.2939 426.93 35.6989 420.211 35.6989H410.564V62.4516H402.036ZM410.564 8.77419V28.4731H419.608C429.083 28.4731 433.821 25.147 433.821 18.4946C433.821 12.0143 429.141 8.77419 419.781 8.77419H410.564Z" fill="#202020"/>
<path d="M0.812225 12.2724C12.7054 12.2724 22.3466 21.9007 22.3466 33.7778C22.3466 45.6549 12.7054 55.2831 0.812225 55.2831C-11.0809 55.2831 -20.7222 45.6549 -20.7222 33.7778C-20.7222 21.9007 -11.0809 12.2724 0.812225 12.2724Z" fill="#202020"/>
</g>
<defs>
<clipPath id="clip0">
<rect width="1400" height="23925" fill="white" transform="translate(-700 -660)"/>
</clipPath>
</defs>
</svg>
